<svg width="13" height="13" fill="none" xmlns="http://www.w3.org/2000/svg"><g clip-path="url(#a)"><path d="M11.957 8.533a7.381 7.381 0 0 1-2.318-.37c-.37-.125-.79-.027-1.03.218L7.146 9.484c-1.695-.904-2.74-1.948-3.632-3.63l1.07-1.424a1.05 1.05 0 0 0 .26-1.065 7.392 7.392 0 0 1-.371-2.322A1.043 1.043 0 0 0 3.43 0H1.043C.468 0 0 .468 0 1.043 0 7.636 5.364 13 11.957 13c.575 0 1.043-.468 1.043-1.043v-2.38c0-.576-.468-1.044-1.043-1.044Zm.32 3.424a.32.32 0 0 1-.32.32C5.762 12.278.722 7.239.722 1.044a.32.32 0 0 1 .321-.32h2.388a.32.32 0 0 1 .32.32c0 .874.138 1.73.406 2.543.037.12.007.244-.114.37L2.8 5.6a.361.361 0 0 0-.033.382c1.013 1.991 2.244 3.222 4.25 4.25a.36.36 0 0 0 .382-.033L9.08 8.924a.319.319 0 0 1 .328-.076c.817.27 1.675.407 2.548.407a.32.32 0 0 1 .32.321v2.38Z" fill="#FFD300"/></g><defs><clipPath id="a"><path fill="#fff" d="M0 0h13v13H0z"/></clipPath></defs></svg>